<svg version="1.2" id="joey" xmlns="http://www.w3.org/2000/svg" xmlns:xlink="http://www.w3.org/1999/xlink" x="0px" y="0px" viewBox="0 0 2403 1352">
<defs>
    <style>
      #joey {
	  	background: rgba(25,25,25,.9);
	  }
	  .spot {
	    opacity: 0;
	    filter: url(#blur);
        transition: .6s opacity;
        fill: rgb(17, 193, 243);
      }
      .spot:hover {
        opacity: 0.4;
        cursor: pointer;
      }
    </style>
	<filter id="blur" name="blur">
      <feGaussianBlur stdDeviation="10"/>
    </filter>
  </defs>
  <title>joey</title>
  <g id="main">
	<image width="2403" height="1352" id="card" xlink:href="http://goo.gl/kKLVsL" ></image>
	<a target="_system" xlink:href="http://www.sprint.com" data-ebc="Sprint"><ellipse id="web" class="spot" fill="none" cx="2075.9" cy="345.4" rx="199.5" ry="310.4"/></a>
	<a target="_system" xlink:href="http://goo.gl/a465jv" data-ebc="3675 Satellite Blvd, Duluth, GA"><path id="address" class="spot" fill="none" d="M1417.3,862.9H172.2c-39.6,0-72-32.4-72-72v0c0-39.6,32.4-72,72-72h1245.1c39.6,0,72,32.4,72,72v0
		C1489.3,830.5,1456.9,862.9,1417.3,862.9z"/></a>
	<a target="_system" xlink:href="tel:6784731800" data-ebc="(678) 473-1800"><path id="phone-1" class="spot" fill="none" d="M844.3,1012.9h-414c-6.6,0-12-5.4-12-12v-45c0-6.6,5.4-12,12-12h414c6.6,0,12,5.4,12,12v45
		C856.3,1007.5,850.9,1012.9,844.3,1012.9z"/></a>
	<a target="_system" xlink:href="tel:6784810533" data-ebc="(678) 481-0533"><path id="phone-2" class="spot" fill="none" d="M1591.4,1012.9h-408c-6.6,0-12-5.4-12-12v-45c0-6.6,5.4-12,12-12h408c6.6,0,12,5.4,12,12v45
		C1603.4,1007.5,1598,1012.9,1591.4,1012.9z"/></a>
	<a target="_system" xlink:href="tel:18882114724" data-ebc="(888) 211-4727"><path id="phone-3" class="spot" fill="none" d="M1403.3,1088.9h489.1c6.6,0,12-5.4,12-12v-45c0-6.6-5.4-12-12-12h-489.1c-6.6,0-12,5.4-12,12v45
		C1391.3,1083.5,1396.7,1088.9,1403.3,1088.9z"/></a>
	<a target="_system" xlink:href="tel:18005843666" data-ebc="(800) 584-3666"><path id="phone-4" class="spot" fill="none" d="M895.3,1094.9H379.2c-6.6,0-12-5.4-12-12v-45c0-6.6,5.4-12,12-12h516.1c6.6,0,12,5.4,12,12v45
		C907.3,1089.5,901.9,1094.9,895.3,1094.9z"/></a>
	<a target="_system" xlink:href="mailto:joseph.castillo@sprint.com" data-ebc="joseph.castillo@sprint.com"><path id="email" class="spot" fill="none" d="M994.3,1201.9H85.2c-6.6,0-12-5.4-12-12v-63c0-6.6,5.4-12,12-12h909.1c6.6,0,12,5.4,12,12v63
		C1006.3,1196.5,1000.9,1201.9,994.3,1201.9z"/></a>
  </g>
</svg>
