<svg version="1.2" id="dwaylon" xmlns="http://www.w3.org/2000/svg" xmlns:xlink="http://www.w3.org/1999/xlink" x="0px" y="0px" viewBox="0 0 1476.3 891.3">
   <defs>
    <style>
      #dwaylon {
	  	background: rgba(25,25,25,.9);
	  }
	  .spot {
	    opacity: 0;
	    filter: url(#blur);
        transition: .6s opacity;
        fill: rgb(17, 193, 243);
      }
      .spot:hover {
        opacity: 0.4;
        cursor: pointer;
      }
    </style>
	<filter id="blur" name="blur">
      <feGaussianBlur stdDeviation="10"/>
    </filter>
  </defs>
  <title>Dwaylon</title>
  <g id="map">
    <image width="5905" height="3565" id="card" xlink:href="http://goo.gl/OaYNoN"  transform="matrix(0.25 0 0 0.25 0 0)"> </image>
    <a target="_system" xlink:href="https://www.facebook.com/dwaylon.cunningham" data-ebc="profile/100000804011834"><path id="facebook" class="spot" fill="none" d="M547,472H104c-23.1,0-42-18.9-42-42v0c0-23.1,18.9-42,42-42h443c23.1,0,42,18.9,42,42v0
		C589,453.1,570.1,472,547,472z"/></a>
    <a target="_system" xlink:href="tel:7062843027" data-ebc="(706) 284-3027"><path id="phone" class="spot" fill="none" d="M350.5,621h-216c-14,0-25.5-11.5-25.5-25.5l0,0c0-14,11.5-25.5,25.5-25.5h216
		c14,0,25.5,11.5,25.5,25.5l0,0C376,609.5,364.5,621,350.5,621z"/></a>
    <a target="_system" xlink:href="mailto:Dwaylonc.ebc@gmail.com" data-ebc="Dwaylonc.ebc@gmail.com"><path id="email" class="spot" fill="none" d="M522,674H138c-12.6,0-23-10.3-23-23l0,0c0-12.7,10.3-23,23-23h384c12.7,0,23,10.3,23,23l0,0
		C545,663.7,534.7,674,522,674z"/></a>
    <a target="_system" xlink:href="https://www.instagram.com/_e.b.c_" data-ebc="user?username=_e.b.c_"><path id="ebc" class="spot" fill="none" d="M154.5,861.5H68c-6.6,0-12-5.4-12-12V763c0-6.6,5.4-12,12-12h86.5c6.6,0,12,5.4,12,12v86.5
		C166.5,856.1,161.1,861.5,154.5,861.5z"/></a>
    <a target="_system" xlink:href="https://www.facebook.com/EBC-Electronic-Busniess-Cards-461065680762647/" data-ebc="page/461065680762647"><path id="facebook" class="spot" fill="none" d="M292.5,861.5H206c-6.6,0-12-5.4-12-12V763c0-6.6,5.4-12,12-12h86.5c6.6,0,12,5.4,12,12v86.5
		C304.5,856.1,299.1,861.5,292.5,861.5z"/></a>
    <a target="_system" xlink:href="https://youtu.be/-yyrlL0n5_w" data-ebc="-yyrlL0n5_w"><path id="youetube" class="spot" fill="none" d="M440,854h-87c-6.6,0-12-5.4-12-12v-62c0-6.6,5.4-12,12-12h87c6.6,0,12,5.4,12,12v62
		C452,848.6,446.6,854,440,854z"/></a>
    <a target="_system" xlink:href="https://www.linkedin.com/in/dwaylon-cunningham-0320ab56" data-ebc="dwaylon-cunningham-0320ab56"><path id="linkedin" class="spot" fill="none" d="M578,862h-87c-6.6,0-12-5.4-12-12v-81c0-6.6,5.4-12,12-12h87c6.6,0,12,5.4,12,12v81
		C590,856.6,584.6,862,578,862z"/></a>
  </g>
</svg>