<svg version="1.2" id="ricky" xmlns="http://www.w3.org/2000/svg" xmlns:xlink="http://www.w3.org/1999/xlink" x="0px" y="0px" viewBox="0 0 1476.3 891.3">
  <defs>
    <style>
      #ricky {
	  	background: rgba(25,25,25,.9);
	  }
	  .spot {
	    opacity: 0;
	    filter: url(#blur);
        transition: .6s opacity;
        fill: rgb(17, 193, 243);
      }
      .spot:hover {
        opacity: 0.4;
        cursor: pointer;
      }
    </style>
	<filter id="blur" name="blur">
      <feGaussianBlur stdDeviation="10"/>
    </filter>
  </defs>
  <title>cory</title>
  <g id="map">
    <image width="5905" height="3565" id="card" xlink:href="http://goo.gl/duMyCD"  transform="matrix(0.25 0 0 0.25 0 0)"> </image>
    <a target="_system" xlink:href="http://goo.gl/sHLKwA" data-ebc="VehicleSearchResults MINI"><path id="web-inv" class="spot" fill="none" d="M855.8,653c-1.3-0.3-60.4,7.1-61.7,7.4c-22.9,4.3-167.3,31.9-205.1-104.6
		c-35.7-128.8,45.6-173.9,64-182.4c2.6-1.2,5.1-2.7,7.4-4.5L768,310c2.2-1.7,55.5-20.8,58-22c27.1-12.8,150.5-100.3,231.7-17.9
		c88.7,90,98.8,252.1,95,277.8C1131,695,890,660.8,855.8,653z"/></a>
    <a target="_system" xlink:href="http://www.sonicautomotive.com/" data-ebc="sonic automotive"><path id="web-sonic" class="spot" fill="none" d="M955.5,811h-435c-11.8,0-21.5-9.7-21.5-21.5l0,0c0-11.8,9.7-21.5,21.5-21.5h435
		c11.8,0,21.5,9.7,21.5,21.5l0,0C977,801.3,967.3,811,955.5,811z"/></a>
    <a target="_system" xlink:href="http://www.atlantamini.com/" data-ebc="atlanta mini"><path id="web" class="spot" fill="none" d="M475,768H180c-6.6,0-12-5.4-12-12v-11c0-6.6,5.4-12,12-12h295c6.6,0,12,5.4,12,12v11
		C487,762.6,481.6,768,475,768z"/></a>
    <a target="_system" xlink:href="mailto:Richard.Massey@atlantamini.com" data-ebc="Richard.Massey@atlantamini.com"><path id="email" class="spot" fill="none" d="M465.5,646h-411c-11.8,0-21.5-9.7-21.5-21.5l0,0c0-11.8,9.7-21.5,21.5-21.5h411
		c11.8,0,21.5,9.7,21.5,21.5l0,0C487,636.3,477.3,646,465.5,646z"/></a>
    <a target="_system" xlink:href="tel:6787990142" data-ebc="(678) 799-0142"><path id="phone" class="spot" fill="none" d="M466.5,533h-177c-12.9,0-23.5-10.6-23.5-23.5v0c0-12.9,10.6-23.5,23.5-23.5h177
		c12.9,0,23.5,10.6,23.5,23.5v0C490,522.4,479.4,533,466.5,533z"/></a>
    <a target="_system" xlink:href="tel:6785697559" data-ebc="(678) 569-7559"><path id="phone" class="spot" fill="none" d="M466.5,428h-177c-12.9,0-23.5-10.6-23.5-23.5v0c0-12.9,10.6-23.5,23.5-23.5h177
		c12.9,0,23.5,10.6,23.5,23.5v0C490,417.4,479.4,428,466.5,428z"/></a>
    <a target="_system" xlink:href="tel:6782563100" data-ebc="(678) 256-3100"><path id="phone" class="spot" fill="none" d="M466.5,325.6h-177c-12.9,0-23.5-10.6-23.5-23.5v0c0-12.9,10.6-23.5,23.5-23.5h177
		c12.9,0,23.5,10.6,23.5,23.5v0C490,315,479.4,325.6,466.5,325.6z"/></a>
    <a target="_system" xlink:href="http://goo.gl/B7NrIs" data-ebc="5925 Peachtree Industrial Boulevard, Atlanta, GA 30341"><path id="address" class="spot" fill="none" d="M467.5,224h-386C64.2,224,50,209.8,50,192.5v-14c0-17.3,14.2-31.5,31.5-31.5h386
		c17.3,0,31.5,14.2,31.5,31.5v14C499,209.8,484.8,224,467.5,224z"/></a>
  </g>
</svg>
