<svg version="1.2" id="bill" xmlns="http://www.w3.org/2000/svg" xmlns:xlink="http://www.w3.org/1999/xlink" x="0px" y="0px" viewBox="0 0 1476 891">
  <defs>
    <style>
      #bill {
	  	background: rgba(25,25,25,.9);
	  }
	  .spot {
	    opacity: 0;
	    filter: url(#blur);
        transition: .6s opacity;
        fill: rgb(17, 193, 243);
      }
      .spot:hover {
        opacity: 0.4;
        cursor: pointer;
      }
    </style>
	<filter id="blur" name="blur">
      <feGaussianBlur stdDeviation="10"/>
    </filter>
  </defs>
  <title>Barber</title>
  <g id="map">
    <image width="1476" height="891" id="card" xlink:href="https://goo.gl/5I6aT2"> </image>
    <a target="_system" xlink:href="https://www.facebook.com/AnointedHeadsLocatedInBarberLounge/photos/" data-ebc="photo/26726061"><path id="fb" class="spot" fill="none" d="M1366,780h-119c-6.6,0-12-5.4-12-12V110c0-6.6,5.4-12,12-12h119c6.6,0,12,5.4,12,12v658
		C1378,774.6,1372.6,780,1366,780z"/></a>
    <a target="_system" xlink:href="https://www.facebook.com/AnointedHeadsLocatedInBarberLounge/" data-ebc="page/459305604142899"><path id="facebook" class="spot" fill="none" d="M1010,842h-17c-6.6,0-12-5.4-12-12V730c0-6.6,5.4-12,12-12h17c6.6,0,12,5.4,12,12v100
		C1022,836.6,1016.6,842,1010,842z"/></a>
    <a target="_system" xlink:href="http://goo.gl/Ygz4wn" data-ebc="2870 Peachtree Industrial Boulevard, Duluth, GA 30097"><path id="address" class="spot" fill="none" d="M1001.5,581h-500c-20.6,0-37.5-16.9-37.5-37.5v0c0-20.6,16.9-37.5,37.5-37.5h500
		c20.6,0,37.5,16.9,37.5,37.5v0C1039,564.1,1022.1,581,1001.5,581z"/></a>
    <a target="_system" xlink:href="tel:6784917068" data-ebc="(678) 491-7068"><path id="phone" class="spot" fill="none" d="M669.5,701h-167c-12.9,0-23.5-10.6-23.5-23.5v-61c0-12.9,10.6-23.5,23.5-23.5h167
		c12.9,0,23.5,10.6,23.5,23.5v61C693,690.4,682.4,701,669.5,701z"/></a>
    <a target="_system" xlink:href="mailto:pastorandre.williams@gmail.com" data-ebc="pastorandre.williams@gmail.com"><path id="email" class="spot" fill="none" d="M960,595H831c-29.7,0-54,24.3-54,54v7c0,29.7,24.3,54,54,54h129c29.7,0,54-24.3,54-54v-7
		C1014,619.3,989.7,595,960,595z"/></a>
    <a target="_system" xlink:href="https://www.facebook.com/aniontedhands.pastorandrewilliams" data-ebc="profile/26726061"><ellipse id="facebook" class="spot" fill="none" cx="743.5" cy="795.5" rx="57.5" ry="53.5"/></a>
    <a target="_system" xlink:href="https://www.instagram.com/_e.b.c_" data-ebc="user?username=_e.b.c_"><path id="ebc" class="spot" fill="none" d="M195,107H43c-6.6,0-12-5.4-12-12V40c0-6.6,5.4-12,12-12h152c6.6,0,12,5.4,12,12v55
		C207,101.6,201.6,107,195,107z"/></a>
  </g>
</svg>
