<svg version="1.2" id="sheek" xmlns="http://www.w3.org/2000/svg" xmlns:xlink="http://www.w3.org/1999/xlink" x="0px" y="0px" viewBox="0 0 3152 1923">
  <defs>
    <style>
      #sheek {
	  	background: rgba(25,25,25,.9);
	  }
	  .spot {
	    opacity: 0;
	    filter: url(#blur);
        transition: .6s opacity;
        fill: rgb(17, 193, 243);
      }
      .spot:hover {
        opacity: 0.4;
        cursor: pointer;
      }
    </style>
	<filter id="blur" name="blur">
      <feGaussianBlur stdDeviation="10"/>
    </filter>
  </defs>
  <title>Sheek 911</title>
  <g id="map">
	  <image width="3152" height="1923" id="base" xlink:href="https://goo.gl/q9eRMd"></image>
	  <a target="_system" xlink:href="https://www.instagram.com/drayanotdrea/" data-ebc="user?username=drayanotdrea"><ellipse id="instagram" class="spot" transform="matrix(0.9947 -0.1026 0.1026 0.9947 -77.779 239.7244)" fill="none" cx="2291.4" cy="875.9" rx="150" ry="296.6"/></a>
	  <a target="_system" xlink:href="https://www.instagram.com/msfame_n_fashion/" data-ebc="user?username=msfame_n_fashion"><ellipse id="instagram" class="spot" transform="matrix(0.9947 -0.1026 0.1026 0.9947 -81.191 205.8913)" fill="none" cx="1960.8" cy="892.2" rx="150" ry="296.6"/></a>
	  <a target="_system" xlink:href="https://www.instagram.com/tallnfierce/" data-ebc="user?username=tallnfierce"><ellipse id="instagram" class="spot" transform="matrix(0.9947 -0.1026 0.1026 0.9947 -70.9808 271.5903)" fill="none" cx="2604.5" cy="825.8" rx="150" ry="296.6"/></a>
	  <a target="_system" xlink:href="tel:14145103055" data-ebc="1-414-510-3055"><path id="phone" class="spot" fill="none" d="M1042.5,940.3H457.1c-20.1,0-36.5-16.4-36.5-36.5v0c0-20.1,16.4-36.5,36.5-36.5h585.4
		  c20.1,0,36.5,16.4,36.5,36.5v0C1079,923.8,1062.6,940.3,1042.5,940.3z"/></a>
	  <a target="_system" xlink:href="http://goo.gl/USMVkn" data-ebc="8524 West Lisbon Avenue, Milwaukee, WI 53222"><path id="address" class="spot" fill="none" d="M1309.2,1192.3h-1150c-39.5,0-71.9-32.3-71.9-71.9v0c0-39.5,32.3-71.9,71.9-71.9h1150
		  c39.5,0,71.9,32.3,71.9,71.9v0C1381.1,1160,1348.7,1192.3,1309.2,1192.3z"/></a>
	  <a target="_system" xlink:href="https://www.instagram.com/sheek911llc/" data-ebc="user?username=sheek911llc"><path id="instagram" class="spot" fill="none" d="M949.8,1591h-111c-32.9,0-59.8-26.9-59.8-59.8v-111c0-32.9,26.9-59.8,59.8-59.8h111
		  c32.9,0,59.8,26.9,59.8,59.8v111C1009.5,1564.1,982.6,1591,949.8,1591z"/></a>
	  <a target="_system" xlink:href="https://www.facebook.com/sheek911boutique/" data-ebc="page/1003128079740828"><path id="faceback" class="spot" fill="none" d="M437.8,1586.3H240c-6.6,0-12-5.4-12-12v-197.8c0-6.6,5.4-12,12-12h197.8c6.6,0,12,5.4,12,12
		  v197.8C449.8,1580.8,444.4,1586.3,437.8,1586.3z"/></a>
	  <a target="_system" xlink:href="https://www.instagram.com/_e.b.c_" data-ebc="user?username=_e.b.c_"><path id="ebc" class="spot" fill="none" d="M2947,242h-230c-48.9,0-89-40-89-89v0c0-48.9,40.1-89,89-89h230c48.9,0,89,40,89,89v0
		  C3036,202,2995.9,242,2947,242z"/></a>
		  <a target="_system" xlink:href="https://www.instagram.com/p/BHF4zBPBQPA/" data-ebc="media?id=1280679465680438208"><path id="insta-1" class="spot" fill="none" d="M1408,774H116c-30.8,0-56-25.2-56-56v0c0-30.8,25.2-56,56-56h1292c30.8,0,56,25.2,56,56v0
		C1464,748.8,1438.8,774,1408,774z"/></a>
	  <a target="_system" xlink:href="http://www.shopfameclothing.bigcartel.com/" data-ebc="Sheek-911"><ellipse id="web" class="spot" fill="none" cx="304" cy="369" rx="147" ry="256"/></a>
  </g>
</svg>


