<svg id="chucky" version="1.2" xmlns="http://www.w3.org/2000/svg" xmlns:xlink="http://www.w3.org/1999/xlink" viewBox="0 0 1476 891">
  <defs>
    <style>
	  #chucky {
	    background: rgba(25,25,25,.9);
	  }
	  .spot {
	    opacity: 0;
	    filter: url(#blur);
        transition: .6s opacity;
        fill: rgb(17, 193, 243);
      }
      .spot:hover {
        opacity: 0.4;
        cursor: pointer;
      }
    </style>
	<filter id="blur" name="blur">
      <feGaussianBlur stdDeviation="10"/>
    </filter>
</defs>
  <title>chucky</title>
  <g id="map">
    <image id="base" width="1476" height="891" xlink:href="https://goo.gl/UnPn5u"/>
    <a target="_system" xlink:href="http://goo.gl/I6vhNL" data-ebc="2434 Gresham Rd SE, Atlanta, GA 30316">
      <rect id="address" class="spot" x="106" y="432" width="529" height="120" rx="60" ry="60" />
    </a>
    <a target="_system" xlink:href="https://youtu.be/TmWpafLgMEs" data-ebc="TmWpafLgMEs">
      <path id="video" class="spot" d="M761,418c30.05,85.06,22.08,131.59,62,178,5.9,6.86,136.14,142.28,314,107,203.51-40.36,318.49-282.75,280-401-9.44-29-32.56-64.87-34-127-1.27-54.61,15.15-88.78-6-115-18.41-22.83-52.5-23.75-71-24-331.82-4.49-339-9-472.25,10.66C784,54,780.33,75.15,764,84,697.33,120.12,716.52,292.09,761,418Z" transform="translate(6)" />
    </a>
    <a target="_system" xlink:href="https://www.facebook.com/Blushhairstudio" data-ebc="page/1873087482917206">
      <rect id="fb" class="spot" x="226" y="712" width="152" height="130" rx="16.83" ry="16.83" />
    </a>
    <a target="_system" xlink:href="https://www.instagram.com/_e.b.c_" data-ebc="user?username=_e.b.c_">
      <rect id="ebc"  class="spot" x="406" y="732" width="235" height="110" rx="29.83" ry="29.83" />
    </a>
    <a target="_system" xlink:href="https://instagram.com/blushhairstudio" data-ebc="user?username=blushhairstudio">
      <rect id="instgram" class="spot" x="44" y="711" width="160" height="137" rx="24.33" ry="24.33" />
    </a>
  </g>
</svg>