<svg id="cory" version="1.2" xmlns="http://www.w3.org/2000/svg" xmlns:xlink="http://www.w3.org/1999/xlink" viewBox="0 0 1476 891">
  <defs>
    <style>
      #cory {
	  	background: rgba(25,25,25,.9);
	  }
	  .spot {
	    opacity: 0;
	    filter: url(#blur);
        transition: .6s opacity;
        fill: rgb(17, 193, 243);
      }
      .spot:hover {
        opacity: 0.4;
        cursor: pointer;
      }
    </style>
	<filter id="blur" name="blur">
      <feGaussianBlur stdDeviation="10"/>
    </filter>
  </defs>
  <title>cory</title>
  <g id="map">
    <image id="card" width="1476" height="891" xlink:href="https://goo.gl/8gRvkX"/>
    <a target="_system" xlink:href="https://goo.gl/YcEjs7" data-ebc="3064 Old Norcross Rd, Duluth, GA 30096">
      <rect id="address" class="spot" x="53" y="362" width="616" height="109" rx="54.5" ry="54.5" />
    </a>
    <a target="_system" xlink:href="mailto:barberhair@gmail.com?subject=Cool%20Hair%20Styles" data-ebc="barberhair@gmail.com?subject=Cool%20Hair%20Styles">
      <rect id="email" class="spot" x="26" y="471" width="682" height="75" rx="37.5" ry="37.5" />
    </a>
    <a target="_system" xlink:href="tel:6785366200" data-ebc="(678) 536-6200">
      <rect id="phone" class="spot" x="144" y="558" width="422" height="97" rx="48.5" ry="48.5" />
    </a>
    <a target="_system" xlink:href="https://www.facebook.com/DesignKingGA" data-ebc="profile/100000609257097">
      <rect id="fb" class="spot" x="230" y="655" width="131" height="112" rx="45" ry="45" />
    </a>
    <a target="_system" xlink:href="https://www.instagram.com/barber_hairitage_" data-ebc="user?username=barber_hairitage_">
      <rect id="instagram" class="spot" x="89" y="655" width="129" height="107" rx="53.5" ry="53.5" />
    </a>
    <a target="_system" xlink:href="https://www.instagram.com/_e.b.c_" data-ebc="user?username=_e.b.c_">
      <rect id="ebc" class="spot" x="367" y="674" width="205" height="93" rx="46.5" ry="46.5" />
    </a>
    <a target="_system" xlink:href="http://www.taylormadebarbershop.com/#!-corys-work/c12fv" data-ebc="Cory Tayor">
      <path id="client_web" class="spot" d="M1058.51,784h0C898.35,784,727,615.16,727,455v-8.5C727,286.34,890.84,105,1051,105h0c210.49,0,339,193.89,339,354.06h0C1390,619.22,1218.68,784,1058.51,784Z" transform="translate(0 -1)" />
    </a>
  </g>
</svg>
