<svg version="1.2" id="tonny" xmlns="http://www.w3.org/2000/svg" xmlns:xlink="http://www.w3.org/1999/xlink" x="0px" y="0px" viewBox="0 0 1476.3 891.3">
  <defs>
    <style>
      #tonny {
	  	background: rgba(25,25,25,.9);
	  }
	  .spot {
	    opacity: 0;
	    filter: url(#blur);
        transition: .6s opacity;
        fill: rgb(17, 193, 243);
      }
      .spot:hover {
        opacity: 0.4;
        cursor: pointer;
      }
    </style>
	<filter id="blur" name="blur">
      <feGaussianBlur stdDeviation="10"/>
    </filter>
  </defs>
  <title>Tonny</title>
  <g id="map">
    <image width="5905" height="3565" id="card" xlink:href="http://goo.gl/ej1K9Y"  transform="matrix(0.25 0 0 0.25 0 0)"> </image>
    <a target="_system" xlink:href="http://goo.gl/g2nfio" data-ebc="Get Rich or Die Trying"><path id="netflix" class="spot" fill="none" d="M1059,320H372c-6.6,0-12-5.4-12-12V23c0-6.6,5.4-12,12-12h687c6.6,0,12,5.4,12,12v285
		C1071,314.6,1065.6,320,1059,320z"/></a>
    <a target="_system" xlink:href="https://youtu.be/YYmKn-REssY" data-ebc="YYmKn-REssY"><path id="youtube-1" class="spot" fill="none" d="M566,468H102c-6.6,0-12-5.4-12-12v-57c0-6.6,5.4-12,12-12h464c6.6,0,12,5.4,12,12v57
		C578,462.6,572.6,468,566,468z"/></a>
    <a target="_system" xlink:href="tel:6785774142" data-ebc="(678) 577-4142"><path id="phone" class="spot" fill="none" d="M335,620H139c-13.7,0-25-11.3-25-25l0,0c0-13.8,11.2-25,25-25h196c13.7,0,25,11.3,25,25l0,0
		C360,608.8,348.8,620,335,620z"/></a>
    <a target="_system" xlink:href="mailto:tmal.ebc@gmail.com" data-ebc="tmal.ebc@gmail.com"><path id="email" class="spot" fill="none" d="M432.5,673h-293c-11.3,0-20.5-9.2-20.5-20.5l0,0c0-11.3,9.2-20.5,20.5-20.5h293
		c11.3,0,20.5,9.2,20.5,20.5l0,0C453,663.8,443.8,673,432.5,673z"/></a>
    <a target="_system" xlink:href="https://soundcloud.com/octobersveryown/drake-controlla" data-ebc="drake-controlla"><path id="cloud" class="spot" fill="none" d="M833,861h-82.9c-6.6,0-12-5.4-12-12v-75c0-6.6,5.4-12,12-12H833c6.6,0,12,5.4,12,12v75
		C845,855.6,839.6,861,833,861z"/></a>
    <a target="_system" xlink:href="https://www.instagram.com/_e.b.c_" data-ebc="user?username=_e.b.c_"><path id="ebc" class="spot" fill="none" d="M124.5,859.5H40c-6.6,0-12-5.4-12-12V763c0-6.6,5.4-12,12-12h84.5c6.6,0,12,5.4,12,12v84.5
		C136.5,854.1,131.1,859.5,124.5,859.5z"/></a>
    <a target="_system" xlink:href="https://www.facebook.com/EBC-Electronic-Busniess-Cards-461065680762647/" data-ebc="page/461065680762647"><path id="facebook" class="spot" fill="none" d="M290,862h-80c-6.6,0-12-5.4-12-12v-87c0-6.6,5.4-12,12-12h80c6.6,0,12,5.4,12,12v87
		C302,856.6,296.6,862,290,862z"/></a>
    <a target="_system" xlink:href="https://youtu.be/Mb1ZvUDvLDY" data-ebc="Mb1ZvUDvLDY"><path id="youtube-2" class="spot" fill="none" d="M471,852h-89c-6.6,0-12-5.4-12-12v-59c0-6.6,5.4-12,12-12h89c6.6,0,12,5.4,12,12v59
		C483,846.6,477.6,852,471,852z"/></a>
    <a target="_system" xlink:href="https://open.spotify.com/track/17M3fW9aswXPK87YZwvaHR" data-ebc="17M3fW9aswXPK87YZwvaHR"><circle id="spotify" class="spot" fill="none" cx="604.5" cy="808.5" r="53.5"/></a>
  </g>
</svg>